<svg width="106" height="19" viewBox="0 0 106 19" fill="none" xmlns="http://www.w3.org/2000/svg">
<path d="M0 18.4V0.650024H11.775V3.80002H3.475V8.52502H10.4V11.675H3.475V18.4H0ZM22.3166 6.20002H25.5666V18.4H22.4666V16.925H22.3916C21.5416 18.0417 20.3249 18.6 18.7416 18.6C17.0416 18.6 15.6416 18.025 14.5416 16.875C13.4583 15.7083 12.9166 14.1917 12.9166 12.325C12.9166 10.4917 13.4583 8.98335 14.5416 7.80002C15.6416 6.60002 17.0166 6.00002 18.6666 6.00002C20.1833 6.00002 21.3749 6.52502 22.2416 7.57502H22.3166V6.20002ZM19.3416 15.675C20.2083 15.675 20.9416 15.3667 21.5416 14.75C22.1416 14.1333 22.4416 13.3333 22.4416 12.35C22.4416 11.3667 22.1499 10.55 21.5666 9.90002C20.9833 9.25002 20.2499 8.92502 19.3666 8.92502C18.4666 8.92502 17.7166 9.24169 17.1166 9.87502C16.5166 10.4917 16.2166 11.3167 16.2166 12.35C16.2166 13.3333 16.5083 14.1333 17.0916 14.75C17.6749 15.3667 18.4249 15.675 19.3416 15.675ZM32.7271 18.6C30.8105 18.6 29.1605 18.0083 27.7771 16.825L29.3771 14.55C30.3771 15.5 31.5021 15.975 32.7521 15.975C33.2188 15.975 33.5855 15.8833 33.8521 15.7C34.1188 15.5167 34.2521 15.275 34.2521 14.975C34.2521 14.7083 34.0938 14.4833 33.7771 14.3C33.4605 14.1167 32.8771 13.8917 32.0271 13.625C30.8438 13.225 29.9188 12.7333 29.2521 12.15C28.6021 11.55 28.2771 10.7167 28.2771 9.65002C28.2771 8.56669 28.6938 7.69169 29.5271 7.02502C30.3605 6.34169 31.4105 6.00002 32.6771 6.00002C34.3438 6.00002 35.8271 6.50835 37.1271 7.52502L35.5521 9.92502C34.6355 9.05835 33.6605 8.62502 32.6271 8.62502C32.3271 8.62502 32.0521 8.70835 31.8021 8.87502C31.5521 9.02502 31.4271 9.25002 31.4271 9.55002C31.4271 9.78332 31.5688 10 31.8521 10.2C32.1521 10.3833 32.6271 10.6 33.2771 10.85C33.9438 11.1 34.4355 11.2917 34.7521 11.425C35.0688 11.5417 35.4438 11.725 35.8771 11.975C36.3105 12.2083 36.6105 12.4417 36.7771 12.675C36.9605 12.8917 37.1188 13.1833 37.2521 13.55C37.4021 13.9167 37.4771 14.3333 37.4771 14.8C37.4771 15.9333 37.0688 16.85 36.2521 17.55C35.4521 18.25 34.2771 18.6 32.7271 18.6ZM43.7832 18.6C42.6999 18.6 41.8499 18.2583 41.2332 17.575C40.6165 16.8917 40.3082 15.8833 40.3082 14.55V8.90002H38.8582V6.20002H40.3082V2.20002L43.5582 1.85002V6.20002H46.8832V8.90002H43.5582V14.1C43.5582 15.1333 43.9165 15.65 44.6332 15.65C45.0999 15.65 45.6165 15.5083 46.1832 15.225L47.0332 17.85C46.0999 18.35 45.0165 18.6 43.7832 18.6Z" fill="#BC2F19"/>
<path d="M57.9344 18.575C55.3844 18.575 53.2344 17.775 51.4844 16.175C49.751 14.575 48.8844 12.375 48.8844 9.575C48.8844 6.94167 49.6844 4.75833 51.2844 3.025C52.901 1.29167 55.1177 0.425002 57.9344 0.425002C59.2344 0.425002 60.501 0.708332 61.7344 1.275C62.9844 1.84167 64.076 2.69167 65.0094 3.825L62.4344 6.025C61.151 4.525 59.651 3.775 57.9344 3.775C56.3677 3.775 55.076 4.30833 54.0594 5.375C53.0594 6.425 52.5594 7.825 52.5594 9.575C52.5594 11.225 53.0594 12.5833 54.0594 13.65C55.0594 14.7167 56.351 15.25 57.9344 15.25C59.7177 15.25 61.2177 14.5 62.4344 13L65.0094 15.225C63.2094 17.4583 60.851 18.575 57.9344 18.575ZM76.0764 6.2H79.3264V18.4H76.2264V16.925H76.1514C75.3014 18.0417 74.0847 18.6 72.5014 18.6C70.8014 18.6 69.4014 18.025 68.3014 16.875C67.218 15.7083 66.6764 14.1917 66.6764 12.325C66.6764 10.4917 67.218 8.98333 68.3014 7.8C69.4014 6.6 70.7764 6 72.4264 6C73.943 6 75.1347 6.525 76.0014 7.575H76.0764V6.2ZM73.1014 15.675C73.968 15.675 74.7014 15.3667 75.3014 14.75C75.9014 14.1333 76.2014 13.3333 76.2014 12.35C76.2014 11.3667 75.9097 10.55 75.3264 9.9C74.743 9.25 74.0097 8.925 73.1264 8.925C72.2264 8.925 71.4764 9.24167 70.8764 9.875C70.2764 10.4917 69.9764 11.3167 69.9764 12.35C69.9764 13.3333 70.268 14.1333 70.8514 14.75C71.4347 15.3667 72.1847 15.675 73.1014 15.675ZM86.4869 18.6C84.5702 18.6 82.9202 18.0083 81.5369 16.825L83.1369 14.55C84.1369 15.5 85.2619 15.975 86.5119 15.975C86.9786 15.975 87.3452 15.8833 87.6119 15.7C87.8786 15.5167 88.0119 15.275 88.0119 14.975C88.0119 14.7083 87.8536 14.4833 87.5369 14.3C87.2202 14.1167 86.6369 13.8917 85.7869 13.625C84.6036 13.225 83.6786 12.7333 83.0119 12.15C82.3619 11.55 82.0369 10.7167 82.0369 9.65C82.0369 8.56667 82.4536 7.69167 83.2869 7.025C84.1202 6.34167 85.1702 6 86.4369 6C88.1036 6 89.5869 6.50833 90.8869 7.525L89.3119 9.925C88.3952 9.05833 87.4202 8.625 86.3869 8.625C86.0869 8.625 85.8119 8.70833 85.5619 8.875C85.3119 9.025 85.1869 9.25 85.1869 9.55C85.1869 9.7833 85.3286 10 85.6119 10.2C85.9119 10.3833 86.3869 10.6 87.0369 10.85C87.7036 11.1 88.1952 11.2917 88.5119 11.425C88.8286 11.5417 89.2036 11.725 89.6369 11.975C90.0702 12.2083 90.3702 12.4417 90.5369 12.675C90.7202 12.8917 90.8786 13.1833 91.0119 13.55C91.1619 13.9167 91.2369 14.3333 91.2369 14.8C91.2369 15.9333 90.8286 16.85 90.0119 17.55C89.2119 18.25 88.0369 18.6 86.4869 18.6ZM101.043 6C104.043 6 105.543 7.69167 105.543 11.075V18.4H102.268V11.9C102.268 10.8167 102.068 10.05 101.668 9.6C101.285 9.15 100.693 8.925 99.893 8.925C98.993 8.925 98.2846 9.20833 97.768 9.775C97.268 10.325 97.018 11.1333 97.018 12.2V18.4H93.743V0H97.018V7.675H97.068C98.068 6.55833 99.393 6 101.043 6Z" fill="#2062F0"/>
</svg>
