<svg width="150" height="150" viewBox="0 0 150 150" fill="none" xmlns="http://www.w3.org/2000/svg">
<path d="M91.1738 99.9687L100.011 91.1343L137.571 128.694L128.733 137.528L91.1738 99.9687Z" fill="#616161"/>
<path d="M62.5 112.5C90.1142 112.5 112.5 90.1142 112.5 62.5C112.5 34.8858 90.1142 12.5 62.5 12.5C34.8858 12.5 12.5 34.8858 12.5 62.5C12.5 90.1142 34.8858 112.5 62.5 112.5Z" fill="#616161"/>
<path d="M101.404 110.437L110.239 101.6L137.414 128.775L128.576 137.612L101.404 110.437Z" fill="#37474F"/>
<path d="M62.5 103.125C84.9366 103.125 103.125 84.9366 103.125 62.5C103.125 40.0635 84.9366 21.875 62.5 21.875C40.0634 21.875 21.875 40.0635 21.875 62.5C21.875 84.9366 40.0634 103.125 62.5 103.125Z" fill="#64B5F6"/>
<path d="M84.0633 44.375C78.7508 38.125 70.9383 34.375 62.5008 34.375C54.0633 34.375 46.2508 38.125 40.9383 44.375C39.6883 45.625 40.0008 47.8125 41.2508 48.75C42.5008 50 44.6883 49.6875 45.6258 48.4375C50.0008 43.4375 55.9383 40.625 62.5008 40.625C69.0633 40.625 75.0008 43.4375 79.3758 48.4375C80.0008 49.0625 80.9383 49.6875 81.8758 49.6875C82.5008 49.6875 83.4383 49.375 83.7508 49.0625C85.0008 47.8125 85.0008 45.625 84.0633 44.375V44.375Z" fill="#BBDEFB"/>
</svg>
