<svg width="95" height="19" viewBox="0 0 95 19" fill="none" xmlns="http://www.w3.org/2000/svg">
<path d="M0 18.7958V0.664062H10.5988V3.8818H3.12787V8.70841H9.36111V11.9261H3.12787V18.7958H0ZM20.0873 6.33341H23.0127V18.7958H20.2223V17.289H20.1548C19.3897 18.4298 18.2946 19.0001 16.8694 19.0001C15.3393 19.0001 14.0791 18.4127 13.089 17.238C12.1139 16.0462 11.6263 14.497 11.6263 12.5901C11.6263 10.7174 12.1139 9.17659 13.089 7.96782C14.0791 6.74201 15.3168 6.12911 16.8019 6.12911C18.1671 6.12911 19.2397 6.6654 20.0198 7.73798H20.0873V6.33341ZM17.4095 16.0122C18.1896 16.0122 18.8497 15.6972 19.3897 15.0673C19.9298 14.4373 20.1998 13.6201 20.1998 12.6157C20.1998 11.6112 19.9373 10.777 19.4122 10.113C18.8872 9.449 18.2271 9.11701 17.432 9.11701C16.6219 9.11701 15.9468 9.44049 15.4068 10.0874C14.8667 10.7174 14.5967 11.5601 14.5967 12.6157C14.5967 13.6201 14.8592 14.4373 15.3843 15.0673C15.9093 15.6972 16.5844 16.0122 17.4095 16.0122ZM29.4579 19.0001C27.7327 19.0001 26.2476 18.3956 25.0024 17.1869L26.4425 14.863C27.3426 15.8334 28.3553 16.3186 29.4804 16.3186C29.9005 16.3186 30.2305 16.2249 30.4705 16.0377C30.7106 15.8505 30.8306 15.6036 30.8306 15.2971C30.8306 15.0247 30.6881 14.7948 30.403 14.6076C30.118 14.4203 29.5929 14.1905 28.8278 13.9181C27.7627 13.5095 26.9301 13.0072 26.33 12.4114C25.745 11.7985 25.4524 10.9472 25.4524 9.8576C25.4524 8.75097 25.8275 7.85716 26.5776 7.17615C27.3277 6.47813 28.2728 6.12911 29.4129 6.12911C30.9131 6.12911 32.2482 6.64837 33.4184 7.6869L32.0007 10.1385C31.1757 9.2532 30.2981 8.81056 29.3679 8.81056C29.0979 8.81056 28.8503 8.89568 28.6253 9.06593C28.4003 9.21916 28.2878 9.449 28.2878 9.75545C28.2878 9.99376 28.4153 10.2151 28.6703 10.4194C28.9403 10.6067 29.3679 10.828 29.953 11.0834C30.5531 11.3388 30.9956 11.5346 31.2806 11.6708C31.5657 11.79 31.9032 11.9772 32.2932 12.2326C32.6833 12.4709 32.9534 12.7093 33.1033 12.9476C33.2684 13.169 33.4109 13.4669 33.5309 13.8415C33.6659 14.216 33.7334 14.6416 33.7334 15.1183C33.7334 16.276 33.3659 17.2124 32.6308 17.9275C31.9107 18.6425 30.8531 19.0001 29.4579 19.0001ZM39.4096 19.0001C38.4345 19.0001 37.6694 18.651 37.1143 17.953C36.5592 17.255 36.2817 16.2249 36.2817 14.863V9.09147H34.9765V6.33341H36.2817V2.24739L39.207 1.88987V6.33341H42.1999V9.09147H39.207V14.4033C39.207 15.4588 39.5296 15.9866 40.1747 15.9866C40.5947 15.9866 41.0597 15.8419 41.5698 15.5525L42.3349 18.2339C41.4948 18.7447 40.5197 19.0001 39.4096 19.0001Z" fill="white"/>
<path d="M52.1469 18.9744C49.8517 18.9744 47.9164 18.1572 46.3413 16.5228C44.781 14.8884 44.001 12.6411 44.001 9.7809C44.001 7.09095 44.7211 4.86066 46.1612 3.09005C47.6163 1.31945 49.6116 0.434141 52.1469 0.434141C53.3171 0.434141 54.4572 0.723564 55.5674 1.30242C56.6925 1.88128 57.675 2.74955 58.5152 3.90726L56.1974 6.15456C55.0422 4.62231 53.6921 3.85618 52.1469 3.85618C50.7367 3.85618 49.5741 4.40098 48.659 5.49059C47.7589 6.56317 47.3089 7.99327 47.3089 9.7809C47.3089 11.4664 47.7589 12.8539 48.659 13.9435C49.5591 15.0332 50.7217 15.5779 52.1469 15.5779C53.7521 15.5779 55.1023 14.8118 56.1974 13.2796L58.5152 15.5524C56.895 17.8337 54.7722 18.9744 52.1469 18.9744ZM68.4767 6.33333H71.402V18.7957H68.6117V17.289H68.5442C67.7791 18.4297 66.6839 19 65.2588 19C63.7286 19 62.4685 18.4126 61.4784 17.2379C60.5032 16.0461 60.0157 14.4969 60.0157 12.59C60.0157 10.7173 60.5032 9.17651 61.4784 7.96773C62.4685 6.74193 63.7061 6.12903 65.1913 6.12903C66.5564 6.12903 67.6291 6.66532 68.4092 7.7379H68.4767V6.33333ZM65.7989 16.0121C66.5789 16.0121 67.239 15.6971 67.7791 15.0672C68.3192 14.4372 68.5892 13.62 68.5892 12.6156C68.5892 11.6111 68.3266 10.7769 67.8016 10.1129C67.2765 9.44891 66.6164 9.11693 65.8214 9.11693C65.0113 9.11693 64.3362 9.4404 63.7961 10.0874C63.2561 10.7173 62.986 11.5601 62.986 12.6156C62.986 13.62 63.2485 14.4372 63.7736 15.0672C64.2987 15.6971 64.9737 16.0121 65.7989 16.0121ZM77.8473 19C76.122 19 74.6368 18.3956 73.3917 17.1868L74.8319 14.8629C75.732 15.8333 76.7446 16.3185 77.8698 16.3185C78.2898 16.3185 78.6198 16.2249 78.8599 16.0376C79.0999 15.8504 79.2199 15.6035 79.2199 15.297C79.2199 15.0246 79.0774 14.7948 78.7924 14.6075C78.5073 14.4203 77.9823 14.1904 77.2172 13.918C76.1521 13.5094 75.3195 13.0071 74.7194 12.4113C74.1343 11.7984 73.8418 10.9472 73.8418 9.85752C73.8418 8.75089 74.2169 7.85707 74.9669 7.17607C75.717 6.47804 76.6621 6.12903 77.8022 6.12903C79.3025 6.12903 80.6376 6.64829 81.8077 7.68682L80.3901 10.1384C79.5649 9.25312 78.6873 8.81047 77.7572 8.81047C77.4872 8.81047 77.2397 8.8956 77.0147 9.06585C76.7896 9.21908 76.6771 9.44891 76.6771 9.75536C76.6771 9.99368 76.8047 10.215 77.0597 10.4193C77.3297 10.6066 77.7572 10.8279 78.3423 11.0833C78.9424 11.3387 79.3849 11.5345 79.67 11.6707C79.955 11.7899 80.2926 11.9771 80.6826 12.2325C81.0726 12.4708 81.3426 12.7092 81.4927 12.9476C81.6577 13.1689 81.8003 13.4668 81.9202 13.8414C82.0553 14.216 82.1228 14.6415 82.1228 15.1183C82.1228 16.2759 81.7552 17.2123 81.0201 17.9274C80.3 18.6425 79.2424 19 77.8473 19ZM90.9493 6.12903C93.6496 6.12903 94.9998 7.85707 94.9998 11.3132V18.7957H92.0519V12.1559C92.0519 11.0493 91.8719 10.2661 91.5119 9.80644C91.1671 9.34676 90.6343 9.11693 89.9142 9.11693C89.1041 9.11693 88.4664 9.40635 88.0015 9.9852C87.5514 10.547 87.3264 11.3727 87.3264 12.4624V18.7957H84.3785V0H87.3264V7.84004H87.3714C88.2715 6.69936 89.4641 6.12903 90.9493 6.12903Z" fill="white"/>
</svg>
